<svg width="17" height="20" viewBox="0 0 17 20" fill="none" xmlns="http://www.w3.org/2000/svg">
<path d="M16 15V15.5H17V15H16ZM16.5 1H17V0.5H16.5V1ZM4.5 1V0.5H4V1H4.5ZM13 4H13.5V3.5H13V4ZM13 19.5L12.7 19.9C12.8515 20.0136 13.0542 20.0319 13.2236 19.9472C13.393 19.8625 13.5 19.6894 13.5 19.5H13ZM7 15L7.3 14.6C7.12222 14.4667 6.87778 14.4667 6.7 14.6L7 15ZM1 19.5H0.5C0.5 19.6894 0.607001 19.8625 0.776393 19.9472C0.945785 20.0319 1.14849 20.0136 1.3 19.9L1 19.5ZM1 4V3.5H0.5V4H1ZM17 15V1H16V15H17ZM16.5 0.5H4.5V1.5H16.5V0.5ZM4 1V4H5V1H4ZM4.5 4.5H13V3.5H4.5V4.5ZM12.5 4V19.5H13.5V4H12.5ZM13.3 19.1L7.3 14.6L6.7 15.4L12.7 19.9L13.3 19.1ZM6.7 14.6L0.7 19.1L1.3 19.9L7.3 15.4L6.7 14.6ZM1.5 19.5V4H0.5V19.5H1.5ZM1 4.5H4.5V3.5H1V4.5Z" fill="#757575"/>
</svg>
