<svg width="31" height="31" viewBox="0 0 31 31" fill="none" xmlns="http://www.w3.org/2000/svg">
<path d="M15.5 10.1719C14.4462 10.1719 13.4161 10.4844 12.5399 11.0698C11.6636 11.6553 10.9807 12.4874 10.5775 13.461C10.1742 14.4346 10.0687 15.5059 10.2743 16.5395C10.4798 17.573 10.9873 18.5224 11.7324 19.2676C12.4776 20.0127 13.427 20.5202 14.4605 20.7257C15.4941 20.9313 16.5654 20.8258 17.539 20.4225C18.5126 20.0193 19.3447 19.3364 19.9302 18.4601C20.5156 17.5839 20.8281 16.5538 20.8281 15.5C20.8281 14.0869 20.2668 12.7317 19.2676 11.7324C18.2683 10.7332 16.9131 10.1719 15.5 10.1719ZM15.5 19.8594C14.6378 19.8594 13.795 19.6037 13.0781 19.1247C12.3612 18.6457 11.8024 17.9648 11.4725 17.1683C11.1425 16.3717 11.0562 15.4952 11.2244 14.6495C11.3926 13.8039 11.8078 13.0271 12.4175 12.4175C13.0271 11.8078 13.8039 11.3926 14.6495 11.2244C15.4952 11.0562 16.3717 11.1425 17.1683 11.4725C17.9648 11.8024 18.6457 12.3612 19.1247 13.0781C19.6037 13.795 19.8594 14.6378 19.8594 15.5C19.8594 16.6562 19.4001 17.765 18.5825 18.5825C17.765 19.4001 16.6562 19.8594 15.5 19.8594ZM20.8281 3.875H10.1719C8.50184 3.875 6.9002 4.53842 5.71931 5.71931C4.53842 6.9002 3.875 8.50184 3.875 10.1719V20.8281C3.875 21.655 4.03787 22.4739 4.35432 23.2378C4.67077 24.0018 5.13459 24.696 5.71931 25.2807C6.9002 26.4616 8.50184 27.125 10.1719 27.125H20.8281C21.655 27.125 22.4739 26.9621 23.2378 26.6457C24.0018 26.3292 24.696 25.8654 25.2807 25.2807C25.8654 24.696 26.3292 24.0018 26.6457 23.2378C26.9621 22.4739 27.125 21.655 27.125 20.8281V10.1719C27.125 9.34496 26.9621 8.52614 26.6457 7.76217C26.3292 6.99819 25.8654 6.30403 25.2807 5.71931C24.696 5.13459 24.0018 4.67077 23.2378 4.35432C22.4739 4.03787 21.655 3.875 20.8281 3.875ZM26.1562 20.8281C26.1562 22.2412 25.5949 23.5965 24.5957 24.5957C23.5965 25.5949 22.2412 26.1562 20.8281 26.1562H10.1719C8.75877 26.1562 7.40354 25.5949 6.40432 24.5957C5.4051 23.5965 4.84375 22.2412 4.84375 20.8281V10.1719C4.84375 8.75877 5.4051 7.40354 6.40432 6.40432C7.40354 5.4051 8.75877 4.84375 10.1719 4.84375H20.8281C22.2412 4.84375 23.5965 5.4051 24.5957 6.40432C25.5949 7.40354 26.1562 8.75877 26.1562 10.1719V20.8281ZM22.7656 9.20312C22.7656 9.39473 22.7088 9.58202 22.6024 9.74133C22.4959 9.90064 22.3446 10.0248 22.1676 10.0981C21.9906 10.1715 21.7958 10.1906 21.6079 10.1533C21.42 10.1159 21.2473 10.0236 21.1119 9.88813C20.9764 9.75265 20.8841 9.58004 20.8467 9.39212C20.8094 9.2042 20.8285 9.00942 20.9019 8.8324C20.9752 8.65538 21.0994 8.50409 21.2587 8.39764C21.418 8.29119 21.6053 8.23438 21.7969 8.23438C22.0538 8.23438 22.3002 8.33644 22.4819 8.51812C22.6636 8.69979 22.7656 8.9462 22.7656 9.20312Z" fill="white"/>
</svg>
