<svg width="27" height="27" viewBox="0 0 27 27" fill="none" xmlns="http://www.w3.org/2000/svg">
<path d="M23.2677 4.66811C23.0715 4.49872 22.8326 4.38569 22.5768 4.34114C22.321 4.29658 22.0578 4.32217 21.8155 4.41517L3.06832 11.7503C2.78067 11.8614 2.53706 12.0626 2.37427 12.3236C2.21147 12.5847 2.13831 12.8914 2.16582 13.1975C2.19334 13.5036 2.32004 13.7924 2.5268 14.0205C2.73356 14.2486 3.00918 14.4035 3.31205 14.4618L8.2375 15.4432V21.5339C8.23783 21.813 8.32091 22.0858 8.47629 22.318C8.63167 22.5502 8.85244 22.7314 9.11088 22.8391C9.28514 22.9098 9.47113 22.9476 9.65928 22.9504C9.84616 22.9515 10.0314 22.9154 10.204 22.8442C10.3767 22.7729 10.5333 22.668 10.6647 22.5356L13.4372 19.7735L17.5806 23.4057C17.8373 23.6349 18.1702 23.7611 18.5149 23.7598C18.6635 23.761 18.8111 23.7371 18.9516 23.689C19.1861 23.6147 19.3969 23.4802 19.5627 23.2991C19.7285 23.1179 19.8435 22.8965 19.8961 22.657L23.7247 6.0542C23.782 5.80359 23.7697 5.5422 23.6892 5.29803C23.6087 5.05385 23.463 4.8361 23.2677 4.66811ZM3.39329 13.0858C3.38619 13.0432 3.39455 12.9994 3.41688 12.9623C3.43921 12.9253 3.47404 12.8973 3.51516 12.8835L19.2055 6.74219L8.70466 14.2999L3.55578 13.268C3.5109 13.263 3.46947 13.2416 3.43946 13.208C3.40946 13.1743 3.39301 13.1308 3.39329 13.0858ZM9.80146 21.6756C9.7733 21.705 9.7365 21.7248 9.69636 21.732C9.65621 21.7393 9.61479 21.7337 9.57804 21.7161C9.54233 21.7005 9.51186 21.6751 9.49025 21.6428C9.46865 21.6105 9.45682 21.5727 9.45617 21.5339V16.283L12.513 18.9742L9.80146 21.6756ZM18.7181 22.3838C18.7111 22.4189 18.695 22.4515 18.6712 22.4784C18.6475 22.5052 18.6171 22.5253 18.583 22.5366C18.5489 22.548 18.5125 22.5501 18.4773 22.5428C18.4422 22.5355 18.4096 22.519 18.3829 22.4951L9.82177 14.9879L22.5162 5.86197L18.7181 22.3838Z" fill="#231F20"/>
</svg>
