<svg width="27" height="27" viewBox="0 0 27 27" fill="none" xmlns="http://www.w3.org/2000/svg">
<path d="M17.223 12.9725L12.1605 9.59748C12.0652 9.5347 11.9547 9.49888 11.8407 9.4938C11.7266 9.48872 11.6134 9.51457 11.5128 9.56862C11.4123 9.62266 11.3283 9.7029 11.2696 9.80081C11.211 9.89873 11.1799 10.0107 11.1797 10.1248V16.8748C11.1798 16.9899 11.2113 17.1027 11.2708 17.2012C11.3302 17.2997 11.4154 17.3801 11.5172 17.4338C11.6171 17.4877 11.7299 17.5133 11.8433 17.5077C11.9567 17.5021 12.0664 17.4656 12.1605 17.4022L17.223 14.0272C17.3101 13.9694 17.3815 13.8911 17.4308 13.7991C17.4802 13.7071 17.5061 13.6042 17.5061 13.4998C17.5061 13.3954 17.4802 13.2926 17.4308 13.2006C17.3815 13.1086 17.3101 13.0302 17.223 12.9725ZM12.4453 15.6936V11.3061L15.7359 13.4998L12.4453 15.6936ZM24.5109 7.41428C24.4192 7.05832 24.2441 6.72925 24.0002 6.4542C23.7564 6.17915 23.4506 5.96597 23.1082 5.83224C19.5117 4.4506 13.7426 4.4717 13.5 4.4717C13.2574 4.4717 7.48828 4.4506 3.8918 5.83224C3.54938 5.96597 3.24364 6.17915 2.99976 6.4542C2.75588 6.72925 2.58084 7.05832 2.48906 7.41428C2.21484 8.44787 1.89844 10.3463 1.89844 13.4998C1.89844 16.6533 2.21484 18.5518 2.48906 19.5854C2.58084 19.9413 2.75588 20.2704 2.99976 20.5454C3.24364 20.8205 3.54938 21.0337 3.8918 21.1674C7.48828 22.549 13.2574 22.528 13.5 22.528H13.5738C14.3016 22.528 19.6805 22.4858 23.1082 21.1674C23.4506 21.0337 23.7564 20.8205 24.0002 20.5454C24.2441 20.2704 24.4192 19.9413 24.5109 19.5854C24.7852 18.5518 25.1016 16.6533 25.1016 13.4998C25.1016 10.3463 24.7852 8.44787 24.5109 7.41428ZM23.2875 19.269C23.246 19.4299 23.167 19.5788 23.0571 19.7034C22.9471 19.8281 22.8092 19.9249 22.6547 19.9862C19.2797 21.2834 13.5633 21.2623 13.5 21.2623C13.4367 21.2623 7.72031 21.2834 4.34531 19.9862C4.19078 19.9249 4.05291 19.8281 3.94293 19.7034C3.83296 19.5788 3.754 19.4299 3.7125 19.269C3.45938 18.2987 3.16406 16.5162 3.16406 13.4998C3.16406 10.4834 3.45938 8.701 3.7125 7.73068C3.754 7.56973 3.83296 7.42087 3.94293 7.29623C4.05291 7.1716 4.19078 7.07472 4.34531 7.0135C7.72031 5.71623 13.4367 5.73732 13.5 5.73732C13.5633 5.73732 19.2797 5.71623 22.6547 7.0135C22.8092 7.07472 22.9471 7.1716 23.0571 7.29623C23.167 7.42087 23.246 7.56973 23.2875 7.73068C23.5406 8.701 23.8359 10.4834 23.8359 13.4998C23.8359 16.5162 23.5406 18.2987 23.2875 19.269Z" fill="#231F20"/>
</svg>
