<svg width="31" height="31" viewBox="0 0 31 31" fill="none" xmlns="http://www.w3.org/2000/svg">
<path d="M19.6414 15.1008L13.8289 11.2258C13.7561 11.1773 13.6714 11.1494 13.584 11.1451C13.4966 11.1409 13.4096 11.1604 13.3324 11.2016C13.255 11.2418 13.1903 11.3028 13.1454 11.3776C13.1005 11.4524 13.0772 11.5382 13.0781 11.6254V19.3754C13.0772 19.4627 13.1005 19.5484 13.1454 19.6232C13.1903 19.6981 13.255 19.759 13.3324 19.7992C13.4037 19.8361 13.4823 19.8568 13.5625 19.8598C13.6582 19.8615 13.7518 19.8318 13.8289 19.775L19.6414 15.9C19.7089 15.8575 19.7646 15.7985 19.8032 15.7286C19.8418 15.6588 19.862 15.5802 19.862 15.5004C19.862 15.4206 19.8418 15.3421 19.8032 15.2722C19.7646 15.2023 19.7089 15.1433 19.6414 15.1008ZM14.0469 18.4672V12.5336L18.5031 15.5004L14.0469 18.4672ZM27.9121 8.57385C27.8121 8.20464 27.6276 7.8637 27.3734 7.57792C27.1191 7.29213 26.8019 7.0693 26.4469 6.92697C22.3539 5.35276 15.7785 5.37697 15.5 5.37697C15.2215 5.37697 8.64609 5.35276 4.55312 6.92697C4.19806 7.0693 3.8809 7.29213 3.62663 7.57792C3.37236 7.8637 3.18794 8.20464 3.08789 8.57385C2.78516 9.74846 2.42188 11.9039 2.42188 15.5004C2.42188 19.0969 2.78516 21.2524 3.08789 22.427C3.18794 22.7962 3.37236 23.1371 3.62663 23.4229C3.8809 23.7087 4.19806 23.9315 4.55312 24.0738C8.64609 25.6481 15.2215 25.6238 15.5 25.6238H15.5848C16.4203 25.6238 22.5598 25.5754 26.4469 24.0738C26.8019 23.9315 27.1191 23.7087 27.3734 23.4229C27.6276 23.1371 27.8121 22.7962 27.9121 22.427C28.2148 21.2524 28.5781 19.0969 28.5781 15.5004C28.5781 11.9039 28.2148 9.74846 27.9121 8.57385ZM26.9676 22.1848C26.9094 22.4052 26.8001 22.6089 26.6487 22.7792C26.4972 22.9496 26.3078 23.082 26.0957 23.1656C22.1723 24.6793 15.5727 24.6551 15.5 24.6551C15.4273 24.6551 8.82773 24.6793 4.9043 23.1656C4.69221 23.082 4.50279 22.9496 4.35132 22.7792C4.19986 22.6089 4.09062 22.4052 4.03242 22.1848C3.7418 21.0586 3.39062 18.9879 3.39062 15.5004C3.39062 12.0129 3.7418 9.94221 4.03242 8.81604C4.09062 8.59561 4.19986 8.39197 4.35132 8.22158C4.50279 8.05118 4.69221 7.91882 4.9043 7.83518C8.82773 6.32151 15.4273 6.34572 15.5 6.34572C15.5727 6.34572 22.1723 6.32151 26.0957 7.83518C26.3078 7.91882 26.4972 8.05118 26.6487 8.22158C26.8001 8.39197 26.9094 8.59561 26.9676 8.81604C27.2582 9.94221 27.6094 12.0129 27.6094 15.5004C27.6094 18.9879 27.2582 21.0586 26.9676 22.1848Z" fill="white"/>
</svg>
