<svg width="26" height="26" viewBox="0 0 26 26" fill="none" xmlns="http://www.w3.org/2000/svg">
<path d="M25 11.5C25 9.22552 24.3255 7.00211 23.0619 5.11095C21.7983 3.21978 20.0022 1.7458 17.9009 0.87539C15.7995 0.00498257 13.4872 -0.222755 11.2565 0.220974C9.02568 0.664704 6.97658 1.75997 5.36828 3.36828C3.75997 4.97658 2.6647 7.02568 2.22097 9.25646C1.77724 11.4872 2.00498 13.7995 2.87539 15.9009C3.7458 18.0022 5.21978 19.7983 7.11095 21.0619C9.00211 22.3255 11.2255 23 13.5 23C16.5491 22.997 19.4724 21.7845 21.6284 19.6284C23.7845 17.4724 24.997 14.5491 25 11.5ZM14.1765 21.6245V13.9804H17.1078C17.2873 13.9804 17.4593 13.9091 17.5862 13.7823C17.713 13.6554 17.7843 13.4833 17.7843 13.3039C17.7843 13.1245 17.713 12.9524 17.5862 12.8256C17.4593 12.6987 17.2873 12.6275 17.1078 12.6275H14.1765V9.69608C14.1794 9.15876 14.3942 8.64429 14.7741 8.26434C15.1541 7.88439 15.6686 7.66963 16.2059 7.66667H18.0098C18.1892 7.66667 18.3613 7.5954 18.4881 7.46854C18.615 7.34167 18.6863 7.16961 18.6863 6.9902C18.6863 6.81079 18.615 6.63873 18.4881 6.51186C18.3613 6.385 18.1892 6.31373 18.0098 6.31373H16.2059C15.3097 6.3167 14.4512 6.67401 13.8175 7.30768C13.1838 7.94135 12.8265 8.79994 12.8235 9.69608V12.6275H9.89216C9.71275 12.6275 9.54069 12.6987 9.41382 12.8256C9.28696 12.9524 9.21569 13.1245 9.21569 13.3039C9.21569 13.4833 9.28696 13.6554 9.41382 13.7823C9.54069 13.9091 9.71275 13.9804 9.89216 13.9804H12.8235V21.6245C10.1968 21.449 7.74113 20.2595 5.97506 18.3072C4.20899 16.3549 3.27079 13.7927 3.35859 11.1616C3.44639 8.5305 4.55332 6.03651 6.44562 4.20631C8.33791 2.3761 10.8674 1.35297 13.5 1.35297C16.1326 1.35297 18.6621 2.3761 20.5544 4.20631C22.4467 6.03651 23.5536 8.5305 23.6414 11.1616C23.7292 13.7927 22.791 16.3549 21.0249 18.3072C19.2589 20.2595 16.8032 21.449 14.1765 21.6245Z" fill="#231F20"/>
</svg>
