<svg width="28" height="27" viewBox="0 0 28 27" fill="none" xmlns="http://www.w3.org/2000/svg">
<path d="M27.2813 13.2813C27.2813 10.6545 26.5023 8.08668 25.043 5.90259C23.5836 3.7185 21.5093 2.01621 19.0825 1.01098C16.6557 0.00575435 13.9853 -0.257258 11.409 0.255202C8.83265 0.767661 6.46616 2.03258 4.60874 3.88999C2.75133 5.74741 1.48641 8.1139 0.973952 10.6902C0.461492 13.2665 0.724504 15.9369 1.72973 18.3638C2.73496 20.7906 4.43725 22.8648 6.62134 24.3242C8.80543 25.7836 11.3732 26.5625 14 26.5625C17.5203 26.5555 20.8943 25.154 23.3835 22.6648C25.8727 20.1756 27.2742 16.8015 27.2813 13.2813ZM14.5313 25.4867V15.9375H18.25C18.3909 15.9375 18.526 15.8815 18.6257 15.7819C18.7253 15.6823 18.7813 15.5472 18.7813 15.4063C18.7813 15.2654 18.7253 15.1302 18.6257 15.0306C18.526 14.931 18.3909 14.875 18.25 14.875H14.5313V11.1563C14.5347 10.4528 14.8157 9.77925 15.3131 9.28186C15.8105 8.78447 16.4841 8.5035 17.1875 8.5H19.3125C19.4534 8.5 19.5885 8.44403 19.6882 8.34441C19.7878 8.24478 19.8438 8.10965 19.8438 7.96876C19.8438 7.82786 19.7878 7.69273 19.6882 7.5931C19.5885 7.49348 19.4534 7.43751 19.3125 7.43751H17.1875C16.2023 7.44101 15.2585 7.83393 14.5618 8.53057C13.8652 9.22721 13.4723 10.1711 13.4688 11.1563V14.875H9.75C9.60911 14.875 9.47398 14.931 9.37435 15.0306C9.27473 15.1302 9.21875 15.2654 9.21875 15.4063C9.21875 15.5472 9.27473 15.6823 9.37435 15.7819C9.47398 15.8815 9.60911 15.9375 9.75 15.9375H13.4688V25.4867C10.2772 25.3478 7.26692 23.9645 5.08286 21.6331C2.89881 19.3017 1.71468 16.2077 1.78414 13.0138C1.85361 9.81999 3.17114 6.78037 5.4545 4.54614C7.73785 2.31191 10.8054 1.06078 14 1.06078C17.1946 1.06078 20.2622 2.31191 22.5455 4.54614C24.8289 6.78037 26.1464 9.81999 26.2159 13.0138C26.2853 16.2077 25.1012 19.3017 22.9171 21.6331C20.7331 23.9645 17.7228 25.3478 14.5313 25.4867Z" fill="white"/>
</svg>
