<svg width="21" height="21" viewBox="0 0 21 21" fill="none" xmlns="http://www.w3.org/2000/svg">
<path d="M10.5 6.00781C9.61153 6.00781 8.74301 6.27127 8.00427 6.76488C7.26554 7.25849 6.68976 7.96007 6.34976 8.78091C6.00976 9.60175 5.9208 10.505 6.09413 11.3764C6.26746 12.2478 6.6953 13.0482 7.32354 13.6765C7.95179 14.3047 8.75222 14.7325 9.62362 14.9059C10.495 15.0792 11.3982 14.9902 12.2191 14.6502C13.0399 14.3102 13.7415 13.7345 14.2351 12.9957C14.7287 12.257 14.9922 11.3885 14.9922 10.5C14.9922 9.3086 14.5189 8.16599 13.6765 7.32354C12.834 6.4811 11.6914 6.00781 10.5 6.00781ZM10.5 13.8203C9.8433 13.8203 9.20136 13.6256 8.65533 13.2607C8.10931 12.8959 7.68374 12.3773 7.43243 11.7706C7.18112 11.1639 7.11537 10.4963 7.24349 9.85224C7.3716 9.20816 7.68783 8.61654 8.15218 8.15218C8.61654 7.68783 9.20816 7.3716 9.85224 7.24349C10.4963 7.11537 11.1639 7.18112 11.7706 7.43243C12.3773 7.68374 12.8959 8.10931 13.2607 8.65533C13.6256 9.20136 13.8203 9.8433 13.8203 10.5C13.8177 11.3798 13.4671 12.2228 12.845 12.845C12.2228 13.4671 11.3798 13.8177 10.5 13.8203ZM14.7969 0.929688H6.20312C4.80452 0.929687 3.4632 1.48528 2.47424 2.47424C1.48528 3.4632 0.929688 4.80452 0.929688 6.20312V14.7969C0.929687 16.1955 1.48528 17.5368 2.47424 18.5258C3.4632 19.5147 4.80452 20.0703 6.20312 20.0703H14.7969C16.1955 20.0703 17.5368 19.5147 18.5258 18.5258C19.5147 17.5368 20.0703 16.1955 20.0703 14.7969V6.20312C20.0703 4.80452 19.5147 3.4632 18.5258 2.47424C17.5368 1.48528 16.1955 0.929688 14.7969 0.929688ZM18.8984 14.7969C18.8984 15.8847 18.4663 16.9279 17.6971 17.6971C16.9279 18.4663 15.8847 18.8984 14.7969 18.8984H6.20312C5.11532 18.8984 4.07207 18.4663 3.30288 17.6971C2.53369 16.9279 2.10156 15.8847 2.10156 14.7969V6.20312C2.10156 5.11532 2.53369 4.07207 3.30288 3.30288C4.07207 2.53369 5.11532 2.10156 6.20312 2.10156H14.7969C15.8847 2.10156 16.9279 2.53369 17.6971 3.30288C18.4663 4.07207 18.8984 5.11532 18.8984 6.20312V14.7969ZM16.5547 5.42188C16.5547 5.61502 16.4974 5.80383 16.3901 5.96442C16.2828 6.12502 16.1303 6.25019 15.9518 6.3241C15.7734 6.39801 15.577 6.41735 15.3876 6.37967C15.1982 6.34199 15.0242 6.24898 14.8876 6.11241C14.751 5.97583 14.658 5.80183 14.6203 5.61239C14.5826 5.42296 14.602 5.2266 14.6759 5.04816C14.7498 4.86972 14.875 4.7172 15.0356 4.60989C15.1962 4.50259 15.385 4.44531 15.5781 4.44531C15.8371 4.44531 16.0855 4.5482 16.2687 4.73134C16.4518 4.91448 16.5547 5.16287 16.5547 5.42188Z" fill="#231F20"/>
</svg>
