<svg width="25" height="23" viewBox="0 0 25 23" fill="none" xmlns="http://www.w3.org/2000/svg">
<path d="M24.4956 0.622567C24.2977 0.45583 24.0569 0.344861 23.7991 0.30159C23.5413 0.258319 23.2763 0.284382 23.0326 0.376978L0.907065 8.85565C0.619528 8.96721 0.376528 9.1662 0.214117 9.42308C0.0517052 9.67996 -0.0214661 9.98106 0.0054585 10.2817C0.0323831 10.5823 0.157969 10.8665 0.363585 11.092C0.569201 11.3176 0.843893 11.4725 1.14691 11.5337L7.15498 12.7149V19.9422C7.15134 20.2207 7.23414 20.4937 7.39253 20.7253C7.55091 20.957 7.77746 21.1366 8.0424 21.2404C8.22174 21.31 8.41301 21.3457 8.60603 21.3456C8.79336 21.3458 8.97887 21.3097 9.15179 21.2395C9.32471 21.1692 9.48161 21.0661 9.61337 20.9363L13.0431 17.5916L18.1038 21.9303C18.3631 22.1593 18.7014 22.2846 19.0512 22.2812C19.202 22.2808 19.3517 22.2571 19.4949 22.211C19.7307 22.1356 19.9427 22.0024 20.1107 21.8243C20.2786 21.6462 20.3969 21.429 20.4543 21.1936L24.9633 1.99085C25.0224 1.7429 25.0099 1.48386 24.9274 1.24238C24.8448 1.0009 24.6954 0.786387 24.4956 0.622567ZM0.955034 10.2005C0.940769 10.0992 0.962808 9.99612 1.01743 9.90876C1.07205 9.82141 1.1559 9.75511 1.25484 9.72106L21.5456 1.95576L7.52674 11.8261L1.33878 10.6216C1.23572 10.6034 1.14188 10.5521 1.0723 10.4757C1.00272 10.3994 0.961424 10.3025 0.955034 10.2005ZM8.92982 20.2697C8.86466 20.3357 8.78061 20.3811 8.68863 20.3999C8.59665 20.4186 8.501 20.41 8.41416 20.3749C8.32573 20.3401 8.24998 20.2803 8.19658 20.2032C8.14317 20.1261 8.11455 20.0353 8.11435 19.9422V13.3581L12.3236 16.9718L8.92982 20.2697ZM24.028 1.79204L19.5189 20.9831C19.5009 21.0627 19.4614 21.1361 19.4045 21.1957C19.3475 21.2554 19.2752 21.2991 19.1951 21.3222C19.1177 21.3493 19.0341 21.3549 18.9537 21.3384C18.8732 21.3219 18.799 21.2839 18.7394 21.2287L8.40217 12.3641L23.956 1.40611C23.9952 1.46186 24.0219 1.52506 24.0343 1.59157C24.0467 1.65808 24.0445 1.7264 24.028 1.79204Z" fill="white"/>
</svg>
