<svg width="204" height="102" viewBox="0 0 204 102" fill="none" xmlns="http://www.w3.org/2000/svg">
<path d="M16.0518 34.2349C20.5244 34.2349 24.2673 34.6575 27.2804 35.5028C30.3406 36.3012 32.624 37.6396 34.1306 39.518C35.6842 41.3495 36.4611 43.8385 36.4611 46.9849C36.4611 48.8633 36.155 50.5774 35.543 52.1271C34.931 53.6768 34.0364 54.9448 32.8594 55.931C31.7295 56.9172 30.3406 57.5512 28.6928 57.8329V58.1851C30.3877 58.5139 31.9178 59.1009 33.2832 59.9462C34.6485 60.7915 35.7313 62.0125 36.5317 63.6092C37.3321 65.2058 37.7322 67.3191 37.7322 69.9489C37.7322 73.0014 36.979 75.6313 35.4724 77.8384C34.0129 79.9987 31.8943 81.6658 29.1165 82.8398C26.3388 83.9669 23.0432 84.5304 19.2297 84.5304H0.374023V34.2349H16.0518ZM17.2523 54.1699C20.3596 54.1699 22.5018 53.6768 23.6788 52.6907C24.9029 51.7045 25.5149 50.2722 25.5149 48.3937C25.5149 46.4683 24.8087 45.0829 23.3963 44.2376C21.9839 43.3923 19.7476 42.9697 16.6873 42.9697H11.0377V54.1699H17.2523ZM11.0377 62.623V75.7252H18.0291C21.2306 75.7252 23.4669 75.1147 24.7381 73.8937C26.0092 72.6257 26.6448 70.9586 26.6448 68.8923C26.6448 67.6244 26.3623 66.5208 25.7974 65.5815C25.2795 64.6423 24.3614 63.9144 23.0432 63.3978C21.7249 62.8813 19.9359 62.623 17.676 62.623H11.0377Z" fill="#231F20"/>
<path d="M76.8471 84.5304H47.8221V34.2349H76.8471V42.9697H58.4858V54.0291H75.576V62.7639H58.4858V75.7252H76.8471V84.5304Z" fill="#231F20"/>
<path d="M98.921 58.3965L81.9721 34.2349H92.9889L109.302 58.6078V34.2349H119.26V58.6078L135.573 34.2349H146.59L129.641 58.3965L147.578 84.5304H136.138L119.26 59.0304V84.5304H109.302V59.0304L92.4239 84.5304H80.9834L98.921 58.3965Z" fill="#231F20"/>
<path d="M9.47726 96.9282V101.549H7.41515V98.6188H0V88.5597H2.13274V96.8437H5.84737V88.5597H7.98011V96.9282H9.47726Z" fill="#231F20"/>
<path d="M13.4779 90.7857C14.1935 90.7857 14.8056 90.9218 15.314 91.1942C15.8319 91.4666 16.2321 91.8611 16.5146 92.3776C16.7971 92.8942 16.9383 93.5282 16.9383 94.2796V95.2939H11.9666C11.9855 95.8857 12.1597 96.3506 12.4892 96.6887C12.8282 97.0268 13.2943 97.1959 13.8875 97.1959C14.3866 97.1959 14.8385 97.1489 15.2434 97.055C15.6483 96.9517 16.0673 96.7967 16.5005 96.5901V98.2102C16.1238 98.3981 15.7236 98.5343 15.2999 98.6188C14.8856 98.7127 14.3819 98.7597 13.7886 98.7597C13.0165 98.7597 12.3339 98.6188 11.7406 98.337C11.1474 98.0459 10.6813 97.6091 10.3424 97.0268C10.0034 96.4445 9.8339 95.7119 9.8339 94.829C9.8339 93.9274 9.98455 93.1807 10.2859 92.589C10.5966 91.9879 11.025 91.537 11.5712 91.2365C12.1173 90.9359 12.7529 90.7857 13.4779 90.7857ZM13.492 92.279C13.0871 92.279 12.7482 92.4105 12.4751 92.6735C12.2115 92.9365 12.0561 93.345 12.009 93.8992H14.9609C14.9609 93.5892 14.9044 93.3122 14.7915 93.068C14.6879 92.8238 14.5278 92.6312 14.3112 92.4903C14.0947 92.3495 13.8216 92.279 13.492 92.279Z" fill="#231F20"/>
<path d="M20.1843 90.9265V93.8851H23.1221V90.9265H25.2266V98.6188H23.1221V95.4489H20.1843V98.6188H18.0798V90.9265H20.1843Z" fill="#231F20"/>
<path d="M33.2506 92.5044H30.7224V98.6188H28.6179V92.5044H26.0897V90.9265H33.2506V92.5044Z" fill="#231F20"/>
<path d="M38.4022 90.7857C39.2685 90.7857 39.97 91.1238 40.5067 91.8C41.0434 92.4669 41.3117 93.4531 41.3117 94.7586C41.3117 95.6321 41.1846 96.3694 40.9304 96.9705C40.6762 97.5622 40.3278 98.0083 39.8852 98.3089C39.4427 98.6094 38.9295 98.7597 38.3457 98.7597C37.9785 98.7597 37.6583 98.7127 37.3853 98.6188C37.1216 98.5249 36.8956 98.4028 36.7073 98.2525C36.519 98.1022 36.3542 97.9426 36.213 97.7735H36.1C36.1376 97.952 36.1659 98.1398 36.1847 98.337C36.2035 98.5249 36.213 98.7127 36.213 98.9006V102H34.1085V90.9265H35.8175L36.1141 91.9268H36.213C36.3542 91.7202 36.5237 91.5323 36.7214 91.3633C36.9192 91.1848 37.1546 91.0439 37.4276 90.9406C37.7101 90.8373 38.035 90.7857 38.4022 90.7857ZM37.7242 92.4622C37.357 92.4622 37.0651 92.5373 36.8485 92.6876C36.632 92.8379 36.4719 93.068 36.3683 93.3779C36.2742 93.6785 36.2224 94.0589 36.213 94.5191V94.7445C36.213 95.2423 36.26 95.6649 36.3542 96.0124C36.4484 96.3506 36.6084 96.6089 36.8344 96.7873C37.0604 96.9658 37.3664 97.055 37.7525 97.055C38.0726 97.055 38.3363 96.9658 38.5434 96.7873C38.7506 96.6089 38.9059 96.3459 39.0095 95.9984C39.1131 95.6508 39.1649 95.2282 39.1649 94.7304C39.1649 93.979 39.0472 93.4155 38.8118 93.0398C38.5858 92.6547 38.2233 92.4622 37.7242 92.4622Z" fill="#231F20"/>
<path d="M49.9309 90.9265V92.5044H46.7106V98.6188H44.6061V90.9265H49.9309Z" fill="#231F20"/>
<path d="M55.0796 90.7857C55.9459 90.7857 56.6474 91.1238 57.1841 91.8C57.7209 92.4669 57.9892 93.4531 57.9892 94.7586C57.9892 95.6321 57.8621 96.3694 57.6079 96.9705C57.3536 97.5622 57.0052 98.0083 56.5627 98.3089C56.1201 98.6094 55.6069 98.7597 55.0232 98.7597C54.6559 98.7597 54.3358 98.7127 54.0627 98.6188C53.7991 98.5249 53.5731 98.4028 53.3848 98.2525C53.1964 98.1022 53.0317 97.9426 52.8904 97.7735H52.7774C52.8151 97.952 52.8433 98.1398 52.8622 98.337C52.881 98.5249 52.8904 98.7127 52.8904 98.9006V102H50.7859V90.9265H52.4949L52.7915 91.9268H52.8904C53.0317 91.7202 53.2011 91.5323 53.3989 91.3633C53.5966 91.1848 53.832 91.0439 54.1051 90.9406C54.3876 90.8373 54.7124 90.7857 55.0796 90.7857ZM54.4017 92.4622C54.0345 92.4622 53.7426 92.5373 53.526 92.6876C53.3094 92.8379 53.1494 93.068 53.0458 93.3779C52.9516 93.6785 52.8998 94.0589 52.8904 94.5191V94.7445C52.8904 95.2423 52.9375 95.6649 53.0317 96.0124C53.1258 96.3506 53.2859 96.6089 53.5119 96.7873C53.7379 96.9658 54.0439 97.055 54.4299 97.055C54.7501 97.055 55.0137 96.9658 55.2209 96.7873C55.428 96.6089 55.5834 96.3459 55.687 95.9984C55.7906 95.6508 55.8423 95.2282 55.8423 94.7304C55.8423 93.979 55.7246 93.4155 55.4892 93.0398C55.2633 92.6547 54.9007 92.4622 54.4017 92.4622Z" fill="#231F20"/>
<path d="M66.1644 94.7586C66.1644 95.3973 66.075 95.9655 65.8961 96.4633C65.7266 96.9611 65.477 97.3837 65.1475 97.7312C64.8273 98.0694 64.4366 98.3276 63.9752 98.5061C63.5138 98.6752 62.9912 98.7597 62.4074 98.7597C61.8707 98.7597 61.3716 98.6752 60.9103 98.5061C60.4583 98.3276 60.0675 98.0694 59.738 97.7312C59.4084 97.3837 59.1494 96.9611 58.9611 96.4633C58.7822 95.9655 58.6928 95.3973 58.6928 94.7586C58.6928 93.9039 58.8434 93.1854 59.1447 92.6031C59.4461 92.0113 59.8792 91.5605 60.4442 91.2506C61.0091 90.9406 61.6777 90.7857 62.4498 90.7857C63.1748 90.7857 63.8151 90.9406 64.3706 91.2506C64.9262 91.5605 65.364 92.0113 65.6842 92.6031C66.0043 93.1854 66.1644 93.9039 66.1644 94.7586ZM60.8396 94.7586C60.8396 95.2658 60.8914 95.6931 60.995 96.0406C61.108 96.3787 61.2822 96.637 61.5176 96.8155C61.753 96.9845 62.059 97.0691 62.4356 97.0691C62.8123 97.0691 63.1136 96.9845 63.3396 96.8155C63.575 96.637 63.7445 96.3787 63.8481 96.0406C63.9611 95.6931 64.0175 95.2658 64.0175 94.7586C64.0175 94.2514 63.9611 93.8287 63.8481 93.4906C63.7445 93.1525 63.575 92.8989 63.3396 92.7299C63.1042 92.5608 62.7982 92.4763 62.4215 92.4763C61.866 92.4763 61.4611 92.6688 61.2069 93.0539C60.962 93.4296 60.8396 93.9978 60.8396 94.7586Z" fill="#231F20"/>
<path d="M77.0561 90.9265V98.6188H75.0928V94.8431C75.0928 94.4674 75.0975 94.1011 75.1069 93.7442C75.1258 93.3873 75.1493 93.0586 75.1776 92.758H75.1352L73.0025 98.6188H71.4206L69.2596 92.7439H69.2031C69.2407 93.0539 69.2643 93.3873 69.2737 93.7442C69.2925 94.0917 69.3019 94.4768 69.3019 94.8995V98.6188H67.3387V90.9265H70.3189L72.2398 96.1392L74.1889 90.9265H77.0561Z" fill="#231F20"/>
<path d="M81.8547 90.7716C82.8905 90.7716 83.6814 90.997 84.2276 91.4478C84.7831 91.8892 85.0609 92.5702 85.0609 93.4906V98.6188H83.592L83.1824 97.5763H83.1259C82.9093 97.8486 82.6833 98.074 82.4479 98.2525C82.222 98.431 81.9583 98.5578 81.657 98.6329C81.3651 98.7174 81.0026 98.7597 80.5694 98.7597C80.1175 98.7597 79.7079 98.6752 79.3406 98.5061C78.9828 98.3276 78.7003 98.06 78.4932 97.7031C78.286 97.3368 78.1825 96.8765 78.1825 96.3224C78.1825 95.5053 78.4697 94.9042 79.044 94.5191C79.6184 94.1246 80.48 93.9086 81.6287 93.871L82.9705 93.8287V93.4906C82.9705 93.0868 82.8623 92.7909 82.6457 92.6031C82.4385 92.4152 82.1466 92.3213 81.77 92.3213C81.3933 92.3213 81.0261 92.3776 80.6683 92.4903C80.3105 92.5937 79.9527 92.7252 79.5949 92.8848L78.9028 91.4619C79.3171 91.2459 79.7738 91.0768 80.2728 90.9547C80.7813 90.8326 81.3086 90.7716 81.8547 90.7716ZM82.1513 95.0826C81.4734 95.1014 81.0026 95.2235 80.7389 95.4489C80.4753 95.6743 80.3435 95.9702 80.3435 96.3365C80.3435 96.6558 80.4376 96.8859 80.6259 97.0268C80.8143 97.1583 81.0591 97.224 81.3604 97.224C81.8124 97.224 82.1937 97.0926 82.5044 96.8296C82.8152 96.5572 82.9705 96.1768 82.9705 95.6884V95.0544L82.1513 95.0826Z" fill="#231F20"/>
<path d="M93.585 90.9265V97.0832H94.7149V101.38H92.8223V98.6188H87.6388V101.38H85.7461V97.0832H86.3958C86.7348 96.5666 87.022 95.9796 87.2574 95.3221C87.4928 94.6553 87.6811 93.9461 87.8224 93.1948C87.9636 92.4434 88.0672 91.6873 88.1331 90.9265H93.585ZM89.8986 92.5044C89.8233 93.068 89.7291 93.6174 89.6161 94.1528C89.5031 94.6787 89.3619 95.1859 89.1924 95.6743C89.0323 96.1627 88.8346 96.6323 88.5992 97.0832H91.4805V92.5044H89.8986Z" fill="#231F20"/>
<path d="M98.5999 98.7597C97.8372 98.7597 97.1875 98.6235 96.6508 98.3511C96.1141 98.0694 95.7045 97.6373 95.422 97.055C95.1395 96.4727 94.9983 95.726 94.9983 94.8149C94.9983 93.8757 95.1584 93.1102 95.4785 92.5185C95.7987 91.9268 96.2412 91.4901 96.8062 91.2083C97.3806 90.9265 98.0397 90.7857 98.7836 90.7857C99.3109 90.7857 99.7675 90.8373 100.154 90.9406C100.549 91.0439 100.893 91.166 101.185 91.3069L100.563 92.9271C100.234 92.7956 99.9229 92.6876 99.631 92.6031C99.3485 92.5185 99.066 92.4763 98.7836 92.4763C98.4163 92.4763 98.1103 92.5655 97.8655 92.7439C97.6207 92.913 97.4371 93.1713 97.3147 93.5188C97.2017 93.8569 97.1452 94.2843 97.1452 94.8008C97.1452 95.308 97.2064 95.7307 97.3288 96.0688C97.4606 96.3975 97.6489 96.6464 97.8937 96.8155C98.1386 96.9752 98.4352 97.055 98.7836 97.055C99.2261 97.055 99.6169 96.9986 99.9559 96.8859C100.295 96.7638 100.624 96.5995 100.945 96.3928V98.1821C100.624 98.3887 100.285 98.5343 99.9276 98.6188C99.5792 98.7127 99.1367 98.7597 98.5999 98.7597Z" fill="#231F20"/>
<path d="M105.742 93.8992C106.533 93.8992 107.187 93.9837 107.705 94.1528C108.223 94.3124 108.605 94.5613 108.849 94.8995C109.104 95.2376 109.231 95.6602 109.231 96.1674C109.231 96.6652 109.113 97.0973 108.878 97.4636C108.652 97.8298 108.289 98.1163 107.79 98.3229C107.291 98.5202 106.637 98.6188 105.827 98.6188H102.155V90.9265H104.259V93.8992H105.742ZM107.126 96.1956C107.126 95.895 107.004 95.679 106.759 95.5475C106.524 95.416 106.171 95.3503 105.7 95.3503H104.259V97.1677H105.728C106.142 97.1677 106.477 97.0926 106.731 96.9423C106.994 96.792 107.126 96.5431 107.126 96.1956Z" fill="#231F20"/>
<path d="M115.322 90.9265H117.638L114.587 94.6177L117.907 98.6188H115.52L112.37 94.7163V98.6188H110.265V90.9265H112.37V94.66L115.322 90.9265Z" fill="#231F20"/>
<path d="M125.175 94.7586C125.175 95.3973 125.086 95.9655 124.907 96.4633C124.737 96.9611 124.488 97.3837 124.158 97.7312C123.838 98.0694 123.447 98.3276 122.986 98.5061C122.524 98.6752 122.002 98.7597 121.418 98.7597C120.881 98.7597 120.382 98.6752 119.921 98.5061C119.469 98.3276 119.078 98.0694 118.749 97.7312C118.419 97.3837 118.16 96.9611 117.972 96.4633C117.793 95.9655 117.703 95.3973 117.703 94.7586C117.703 93.9039 117.854 93.1854 118.155 92.6031C118.457 92.0113 118.89 91.5605 119.455 91.2506C120.02 90.9406 120.688 90.7857 121.46 90.7857C122.185 90.7857 122.826 90.9406 123.381 91.2506C123.937 91.5605 124.375 92.0113 124.695 92.6031C125.015 93.1854 125.175 93.9039 125.175 94.7586ZM119.85 94.7586C119.85 95.2658 119.902 95.6931 120.006 96.0406C120.119 96.3787 120.293 96.637 120.528 96.8155C120.764 96.9845 121.07 97.0691 121.446 97.0691C121.823 97.0691 122.124 96.9845 122.35 96.8155C122.586 96.637 122.755 96.3787 122.859 96.0406C122.972 95.6931 123.028 95.2658 123.028 94.7586C123.028 94.2514 122.972 93.8287 122.859 93.4906C122.755 93.1525 122.586 92.8989 122.35 92.7299C122.115 92.5608 121.809 92.4763 121.432 92.4763C120.877 92.4763 120.472 92.6688 120.217 93.0539C119.973 93.4296 119.85 93.9978 119.85 94.7586Z" fill="#231F20"/>
<path d="M128.454 98.6188H126.349V90.9265H128.454V98.6188ZM125.036 88.9542C125.036 88.6254 125.13 88.3906 125.318 88.2497C125.507 88.0995 125.732 88.0243 125.996 88.0243C126.26 88.0243 126.486 88.0995 126.674 88.2497C126.872 88.3906 126.971 88.6254 126.971 88.9542C126.971 89.2641 126.872 89.4942 126.674 89.6445C126.486 89.7948 126.26 89.8699 125.996 89.8699C125.732 89.8699 125.507 89.7948 125.318 89.6445C125.13 89.4942 125.036 89.2641 125.036 88.9542ZM127.818 88.9542C127.818 88.6254 127.912 88.3906 128.101 88.2497C128.289 88.0995 128.52 88.0243 128.793 88.0243C129.056 88.0243 129.282 88.0995 129.471 88.2497C129.668 88.3906 129.767 88.6254 129.767 88.9542C129.767 89.2641 129.668 89.4942 129.471 89.6445C129.282 89.7948 129.056 89.8699 128.793 89.8699C128.529 89.8699 128.298 89.7948 128.101 89.6445C127.912 89.4942 127.818 89.2641 127.818 88.9542Z" fill="#231F20"/>
<path d="M135.376 90.7716C136.412 90.7716 137.203 90.997 137.749 91.4478C138.305 91.8892 138.582 92.5702 138.582 93.4906V98.6188H137.113L136.704 97.5763H136.647C136.431 97.8486 136.205 98.074 135.969 98.2525C135.743 98.431 135.48 98.5578 135.178 98.6329C134.887 98.7174 134.524 98.7597 134.091 98.7597C133.639 98.7597 133.229 98.6752 132.862 98.5061C132.504 98.3276 132.222 98.06 132.015 97.7031C131.808 97.3368 131.704 96.8765 131.704 96.3224C131.704 95.5053 131.991 94.9042 132.565 94.5191C133.14 94.1246 134.001 93.9086 135.15 93.871L136.492 93.8287V93.4906C136.492 93.0868 136.384 92.7909 136.167 92.6031C135.96 92.4152 135.668 92.3213 135.291 92.3213C134.915 92.3213 134.548 92.3776 134.19 92.4903C133.832 92.5937 133.474 92.7252 133.116 92.8848L132.424 91.4619C132.839 91.2459 133.295 91.0768 133.794 90.9547C134.303 90.8326 134.83 90.7716 135.376 90.7716ZM135.673 95.0826C134.995 95.1014 134.524 95.2235 134.26 95.4489C133.997 95.6743 133.865 95.9702 133.865 96.3365C133.865 96.6558 133.959 96.8859 134.147 97.0268C134.336 97.1583 134.581 97.224 134.882 97.224C135.334 97.224 135.715 97.0926 136.026 96.8296C136.337 96.5572 136.492 96.1768 136.492 95.6884V95.0544L135.673 95.0826Z" fill="#231F20"/>
<path d="M142.276 90.9265V93.8851H145.214V90.9265H147.318V98.6188H145.214V95.4489H142.276V98.6188H140.172V90.9265H142.276Z" fill="#231F20"/>
<path d="M152.122 90.7716C153.158 90.7716 153.949 90.997 154.495 91.4478C155.05 91.8892 155.328 92.5702 155.328 93.4906V98.6188H153.859L153.45 97.5763H153.393C153.177 97.8486 152.951 98.074 152.715 98.2525C152.489 98.431 152.226 98.5578 151.924 98.6329C151.632 98.7174 151.27 98.7597 150.837 98.7597C150.385 98.7597 149.975 98.6752 149.608 98.5061C149.25 98.3276 148.968 98.06 148.761 97.7031C148.553 97.3368 148.45 96.8765 148.45 96.3224C148.45 95.5053 148.737 94.9042 149.311 94.5191C149.886 94.1246 150.747 93.9086 151.896 93.871L153.238 93.8287V93.4906C153.238 93.0868 153.13 92.7909 152.913 92.6031C152.706 92.4152 152.414 92.3213 152.037 92.3213C151.661 92.3213 151.293 92.3776 150.936 92.4903C150.578 92.5937 150.22 92.7252 149.862 92.8848L149.17 91.4619C149.584 91.2459 150.041 91.0768 150.54 90.9547C151.049 90.8326 151.576 90.7716 152.122 90.7716ZM152.419 95.0826C151.741 95.1014 151.27 95.2235 151.006 95.4489C150.743 95.6743 150.611 95.9702 150.611 96.3365C150.611 96.6558 150.705 96.8859 150.893 97.0268C151.082 97.1583 151.326 97.224 151.628 97.224C152.08 97.224 152.461 97.0926 152.772 96.8296C153.083 96.5572 153.238 96.1768 153.238 95.6884V95.0544L152.419 95.0826Z" fill="#231F20"/>
<path d="M163.824 98.6188H161.72V92.5044H159.785C159.69 93.6315 159.573 94.5942 159.431 95.3926C159.3 96.1815 159.13 96.8249 158.923 97.3227C158.725 97.8205 158.471 98.1868 158.16 98.4216C157.85 98.647 157.468 98.7597 157.016 98.7597C156.771 98.7597 156.55 98.7409 156.352 98.7033C156.155 98.6658 155.976 98.6094 155.816 98.5343V96.8578C155.919 96.8953 156.028 96.9282 156.141 96.9564C156.254 96.9845 156.371 96.9986 156.494 96.9986C156.626 96.9986 156.748 96.947 156.861 96.8437C156.983 96.7403 157.096 96.5572 157.2 96.2942C157.313 96.0312 157.416 95.6696 157.511 95.2094C157.605 94.7492 157.69 94.1716 157.765 93.4765C157.85 92.7721 157.925 91.9221 157.991 90.9265H163.824V98.6188Z" fill="#231F20"/>
<path d="M167.56 90.9265V98.6188H165.456V90.9265H167.56ZM166.515 87.9116C166.826 87.9116 167.094 87.9868 167.32 88.137C167.546 88.2779 167.659 88.5456 167.659 88.9401C167.659 89.3252 167.546 89.5928 167.32 89.7431C167.094 89.8934 166.826 89.9685 166.515 89.9685C166.195 89.9685 165.922 89.8934 165.696 89.7431C165.479 89.5928 165.371 89.3252 165.371 88.9401C165.371 88.5456 165.479 88.2779 165.696 88.137C165.922 87.9868 166.195 87.9116 166.515 87.9116Z" fill="#231F20"/>
<path d="M175.578 92.5044H173.05V98.6188H170.946V92.5044H168.418V90.9265H175.578V92.5044Z" fill="#231F20"/>
<path d="M178.47 93.9696C178.47 94.1293 178.461 94.3265 178.442 94.5613C178.432 94.7961 178.418 95.0357 178.4 95.2799C178.39 95.524 178.376 95.7401 178.357 95.9279C178.338 96.1158 178.324 96.2473 178.315 96.3224L181.874 90.9265H184.402V98.6188H182.368V95.5475C182.368 95.2939 182.378 95.0169 182.397 94.7163C182.415 94.4064 182.434 94.1199 182.453 93.8569C182.481 93.5845 182.5 93.3779 182.51 93.237L178.964 98.6188H176.436V90.9265H178.47V93.9696Z" fill="#231F20"/>
<path d="M191.093 90.9265H193.41L190.359 94.6177L193.678 98.6188H191.291L188.141 94.7163V98.6188H186.037V90.9265H188.141V94.66L191.093 90.9265Z" fill="#231F20"/>
<path d="M196.25 93.9696C196.25 94.1293 196.241 94.3265 196.222 94.5613C196.213 94.7961 196.199 95.0357 196.18 95.2799C196.17 95.524 196.156 95.7401 196.137 95.9279C196.119 96.1158 196.105 96.2473 196.095 96.3224L199.654 90.9265H202.183V98.6188H200.149V95.5475C200.149 95.2939 200.158 95.0169 200.177 94.7163C200.196 94.4064 200.215 94.1199 200.233 93.8569C200.262 93.5845 200.281 93.3779 200.29 93.237L196.745 98.6188H194.217V90.9265H196.25V93.9696Z" fill="#231F20"/>
<path fill-rule="evenodd" clip-rule="evenodd" d="M182.708 30.3318C184.916 28.6885 186.354 26.0013 186.354 22.9652C186.354 17.9632 182.449 13.9082 177.632 13.9082C172.815 13.9082 168.91 17.9632 168.91 22.9652C168.91 25.8818 170.237 28.4763 172.299 30.1329C172.125 30.5729 171.951 31.0129 171.776 31.4529C171.737 31.5526 171.697 31.6523 171.658 31.752C169.006 29.8043 167.274 26.5947 167.274 22.9652C167.274 17.0253 171.912 12.21 177.632 12.21C183.352 12.21 187.99 17.0253 187.99 22.9652C187.99 26.7099 186.147 30.0077 183.351 31.9337C183.137 31.3998 182.922 30.8658 182.708 30.3318Z" fill="#EB3A2D"/>
<path fill-rule="evenodd" clip-rule="evenodd" d="M178.711 36.888C178.355 36.9142 177.996 36.9275 177.634 36.9275C177.186 36.9275 176.743 36.9071 176.305 36.8672C176.106 37.3762 175.907 37.8851 175.708 38.394C176.34 38.4695 176.982 38.5084 177.634 38.5084C178.206 38.5084 178.771 38.4785 179.327 38.4202C179.203 38.1118 179.079 37.8034 178.955 37.4951C178.874 37.2927 178.792 37.0904 178.711 36.888ZM170.345 34.9576C166.077 32.4593 163.212 27.8342 163.212 22.5416C163.212 14.5964 169.669 8.15558 177.634 8.15558C185.6 8.15558 192.057 14.5964 192.057 22.5416C192.057 27.8976 189.122 32.57 184.769 35.0465C184.974 35.5363 185.179 36.026 185.384 36.5157C190.308 33.7928 193.642 28.5555 193.642 22.5416C193.642 13.7233 186.475 6.57471 177.634 6.57471C168.794 6.57471 161.627 13.7233 161.627 22.5416C161.627 28.495 164.893 33.6874 169.736 36.4328C169.939 35.9411 170.142 35.4494 170.345 34.9576Z" fill="#EB3A2D"/>
<path fill-rule="evenodd" clip-rule="evenodd" d="M187.805 42.0203C195.178 38.3655 200.235 30.8598 200.235 22.1942C200.235 9.93669 190.117 0 177.637 0C165.156 0 155.038 9.93669 155.038 22.1942C155.038 30.7736 159.995 38.2161 167.249 41.9101C167.457 41.4146 167.664 40.9191 167.872 40.4235C161.21 36.9742 156.668 30.1051 156.668 22.1942C156.668 10.8207 166.056 1.60055 177.637 1.60055C189.217 1.60055 198.605 10.8207 198.605 22.1942C198.605 30.1942 193.961 37.1287 187.175 40.5387C187.385 41.0326 187.595 41.5264 187.805 42.0203ZM174.066 42.4906C173.865 42.9973 173.665 43.5041 173.464 44.0109C173.73 44.0597 173.999 44.104 174.269 44.1436V42.5237C174.201 42.513 174.134 42.5019 174.066 42.4906Z" fill="#EB3A2D"/>
<path d="M204 84.2796C201.892 84.2796 197.136 84.2825 195.208 84.2382C194.999 84.2323 194.704 83.9013 194.607 83.659C193.209 80.2043 191.837 76.7349 190.459 73.2713C189.526 70.9278 188.589 68.5873 187.653 66.2438C187.585 66.0724 187.5 65.9069 187.359 65.5966C186.843 66.8851 186.381 68.0347 185.925 69.1842C183.487 75.3282 181.037 81.4692 178.632 87.6279C178.391 88.2455 178.023 88.2544 177.519 88.2839C177.03 88.3135 176.81 88.1539 176.618 87.684C173.804 80.7924 170.965 73.9097 168.13 67.0269C168.012 66.7403 167.883 66.4566 167.686 66.0044C167.07 67.5736 166.511 68.9922 165.957 70.4136C164.247 74.8199 162.533 79.2232 160.84 83.6354C160.667 84.0845 160.472 84.2885 159.957 84.2796C158.055 84.2471 153.326 84.2648 151.271 84.2648C152.212 81.7128 172.927 33.3426 177.466 22.5415C181.873 32.873 195.997 65.5966 204 84.2796ZM177.575 85.7099C177.666 85.5503 177.725 85.4706 177.761 85.3789C180.614 78.1859 183.466 70.9958 186.299 63.7939C186.408 63.5161 186.393 63.1172 186.281 62.8334C183.437 55.667 180.572 48.5065 177.711 41.3459C177.649 41.1893 177.56 41.0386 177.466 40.8524C177.393 40.9854 177.351 41.0445 177.325 41.1125C174.454 48.5094 171.584 55.9034 168.737 63.3063C168.625 63.6018 168.678 64.0303 168.801 64.3347C170.915 69.5271 173.05 74.7105 175.184 79.897C175.973 81.8149 176.765 83.7329 177.578 85.704L177.575 85.7099Z" fill="#231F20"/>
</svg>
