<svg width="21" height="21" viewBox="0 0 21 21" fill="none" xmlns="http://www.w3.org/2000/svg">
<path d="M10.5 0C7.71586 0 5.04328 1.10693 3.07617 3.07535C1.10703 5.04455 0.000545458 7.71517 0 10.5C0 13.2836 1.10742 15.9562 3.07617 17.9246C5.04328 19.8931 7.71586 21 10.5 21C13.2841 21 15.9567 19.8931 17.9238 17.9246C19.8926 15.9562 21 13.2836 21 10.5C21 7.71635 19.8926 5.04377 17.9238 3.07535C15.9567 1.10693 13.2841 0 10.5 0Z" fill="url(#paint0_linear_341_4229)"/>
<path d="M4.7525 10.3895C7.8139 9.05603 9.85484 8.17682 10.8753 7.75206C13.7923 6.53914 14.3977 6.32849 14.7931 6.32135C14.8801 6.31996 15.0737 6.34145 15.2 6.44358C15.305 6.52971 15.3345 6.6462 15.3493 6.72798C15.3624 6.80968 15.3805 6.99589 15.3657 7.14125C15.2082 8.80157 14.5241 12.8306 14.1762 14.6903C14.0302 15.4771 13.7398 15.7409 13.4593 15.7667C12.849 15.8228 12.3863 15.3637 11.7957 14.9767C10.872 14.3708 10.3503 13.9938 9.45289 13.4027C8.41601 12.7195 9.08867 12.344 9.67929 11.7304C9.83351 11.5698 12.5209 9.12608 12.5717 8.90443C12.5783 8.87671 12.5848 8.77335 12.5225 8.71888C12.4618 8.66425 12.3716 8.68295 12.3059 8.69771C12.2124 8.71871 10.7375 9.69456 7.87625 11.6251C7.45789 11.9128 7.0789 12.0531 6.73765 12.0457C6.36359 12.0377 5.64172 11.8338 5.10523 11.6595C4.44898 11.4458 3.92562 11.3327 3.97156 10.9697C3.99453 10.7807 4.25539 10.5872 4.7525 10.3895Z" fill="white"/>
<defs>
<linearGradient id="paint0_linear_341_4229" x1="10.5" y1="0" x2="10.5" y2="21" gradientUnits="userSpaceOnUse">
<stop stop-color="#2AABEE"/>
<stop offset="1" stop-color="#229ED9"/>
</linearGradient>
</defs>
</svg>
