<svg width="26" height="26" viewBox="0 0 26 26" fill="none" xmlns="http://www.w3.org/2000/svg">
<path d="M19.9063 13.8009L11.5722 22.1349C10.658 23.0492 9.41797 23.5628 8.12503 23.5628C6.83209 23.5628 5.59211 23.0492 4.67786 22.1349C3.76362 21.2207 3.25 19.9807 3.25 18.6878C3.25 17.3948 3.76362 16.1549 4.67786 15.2406L16.5295 3.38894C16.8314 3.0872 17.1898 2.84787 17.5842 2.68462C17.9785 2.52137 18.4012 2.4374 18.828 2.4375C19.2549 2.4376 19.6775 2.52177 20.0718 2.68521C20.4661 2.84864 20.8244 3.08814 21.1261 3.39003C21.4279 3.69191 21.6672 4.05028 21.8304 4.44466C21.9937 4.83904 22.0777 5.26171 22.0776 5.68854C22.0775 6.11537 21.9933 6.53801 21.8298 6.93231C21.6664 7.32661 21.4269 7.68486 21.125 7.98661L9.2647 19.8469M9.27445 19.8361L9.26361 19.8469M15.4375 9.07752L6.9767 17.5384C6.67913 17.8435 6.51337 18.2534 6.51516 18.6796C6.51694 19.1059 6.68612 19.5143 6.98623 19.817C7.28634 20.1197 7.69335 20.2923 8.11955 20.2977C8.54575 20.3031 8.95701 20.1408 9.2647 19.8459" stroke="black" stroke-width="1.5" stroke-linecap="round" stroke-linejoin="round"/>
</svg>
