<svg width="29" height="29" viewBox="0 0 29 29" fill="none" xmlns="http://www.w3.org/2000/svg">
<path d="M22.9583 4.83301H20.5417C20.2212 4.83301 19.9139 4.96031 19.6872 5.18692C19.4606 5.41353 19.3333 5.72087 19.3333 6.04134C19.3333 6.36181 19.4606 6.66916 19.6872 6.89576C19.9139 7.12237 20.2212 7.24967 20.5417 7.24967H21.75V21.7497H20.5417C20.2212 21.7497 19.9139 21.877 19.6872 22.1036C19.4606 22.3302 19.3333 22.6375 19.3333 22.958C19.3333 23.2785 19.4606 23.5858 19.6872 23.8124C19.9139 24.039 20.2212 24.1663 20.5417 24.1663H22.9583C23.2788 24.1663 23.5861 24.039 23.8128 23.8124C24.0394 23.5858 24.1667 23.2785 24.1667 22.958V6.04134C24.1667 5.72087 24.0394 5.41353 23.8128 5.18692C23.5861 4.96031 23.2788 4.83301 22.9583 4.83301ZM14.2583 8.94134C14.0661 8.68497 13.7798 8.51547 13.4626 8.47015C13.1453 8.42483 12.823 8.50739 12.5667 8.69967C12.3103 8.89196 12.1408 9.17821 12.0955 9.49546C12.0502 9.81271 12.1327 10.135 12.325 10.3913L14.5 13.2913H4.83333C4.51286 13.2913 4.20552 13.4186 3.97891 13.6453C3.75231 13.8719 3.625 14.1792 3.625 14.4997C3.625 14.8201 3.75231 15.1275 3.97891 15.3541C4.20552 15.5807 4.51286 15.708 4.83333 15.708H14.6087L12.5304 18.6563C12.4377 18.7862 12.3716 18.9332 12.336 19.0887C12.3004 19.2443 12.2959 19.4053 12.3229 19.5626C12.3498 19.7199 12.4077 19.8703 12.4931 20.0051C12.5785 20.1399 12.6897 20.2564 12.8204 20.348C13.0258 20.4914 13.2707 20.5674 13.5212 20.5655C13.713 20.5646 13.9017 20.5181 14.0719 20.4299C14.2421 20.3416 14.3888 20.2142 14.5 20.058L17.9075 15.2247C18.0587 15.0177 18.1402 14.7681 18.1402 14.5118C18.1402 14.2555 18.0587 14.0058 17.9075 13.7988L14.2583 8.94134Z" fill="#231F20"/>
</svg>
