<svg width="23" height="23" viewBox="0 0 23 23" fill="none" xmlns="http://www.w3.org/2000/svg">
<path d="M17.7891 19.4059C17.7891 19.5489 17.7323 19.686 17.6312 19.7871C17.5301 19.8882 17.393 19.945 17.25 19.945H3.59375C3.26016 19.945 2.94023 19.8125 2.70434 19.5766C2.46846 19.3407 2.33594 19.0208 2.33594 18.6872V7.90591C2.33594 7.76294 2.39273 7.62583 2.49383 7.52474C2.59492 7.42364 2.73203 7.36685 2.875 7.36685C3.01797 7.36685 3.15508 7.42364 3.25617 7.52474C3.35727 7.62583 3.41406 7.76294 3.41406 7.90591V18.6872C3.41406 18.7348 3.43299 18.7805 3.46669 18.8142C3.50039 18.8479 3.54609 18.8668 3.59375 18.8668H17.25C17.393 18.8668 17.5301 18.9236 17.6312 19.0247C17.7323 19.1258 17.7891 19.2629 17.7891 19.4059ZM20.5742 9.63989C20.591 9.61087 20.606 9.58087 20.6191 9.55005H20.6281L20.6551 9.46021C20.6671 9.39487 20.6671 9.32789 20.6551 9.26255L20.6281 9.17271H20.6191C20.606 9.14189 20.591 9.11188 20.5742 9.08286C20.5575 9.05024 20.5328 9.02241 20.5023 9.002L16.1898 4.6895C16.0898 4.58943 15.954 4.5332 15.8125 4.5332C15.671 4.5332 15.5352 4.58943 15.4352 4.6895C15.3351 4.78958 15.2789 4.92532 15.2789 5.06685C15.2789 5.20838 15.3351 5.34411 15.4352 5.44419L18.8223 8.80435H15.0938C13.0615 8.80357 11.0867 9.47833 9.47982 10.7225C7.87296 11.9667 6.72525 13.7097 6.21719 15.6774C6.18167 15.8156 6.2024 15.9622 6.27481 16.0852C6.34723 16.2081 6.46543 16.2973 6.60352 16.3333L6.73828 16.3512C6.85764 16.351 6.97357 16.3112 7.06787 16.2381C7.16218 16.1649 7.22954 16.0625 7.25938 15.9469C7.70915 14.2111 8.72252 12.6738 10.1405 11.5762C11.5584 10.4786 13.3006 9.88286 15.0938 9.88247H18.8223L15.4352 13.2786C15.3351 13.3786 15.2789 13.5144 15.2789 13.6559C15.2789 13.7974 15.3351 13.9332 15.4352 14.0333C15.5352 14.1333 15.671 14.1896 15.8125 14.1896C15.954 14.1896 16.0898 14.1333 16.1898 14.0333L20.5023 9.72075C20.5328 9.70035 20.5575 9.67252 20.5742 9.63989Z" fill="#231F20"/>
</svg>
