<svg width="80" height="75" viewBox="0 0 80 75" fill="none" xmlns="http://www.w3.org/2000/svg">
<path fill-rule="evenodd" clip-rule="evenodd" d="M49.0083 53.7145C52.9288 50.8032 55.4833 46.0426 55.4833 40.6639C55.4833 31.8022 48.5495 24.6184 39.9963 24.6184C31.443 24.6184 24.5093 31.8022 24.5093 40.6639C24.5093 45.8308 26.8665 50.4273 30.5275 53.362C30.2179 54.1416 29.9082 54.9211 29.5986 55.7005C29.5284 55.8772 29.4583 56.0539 29.3881 56.2305C24.6796 52.7799 21.6055 47.0938 21.6055 40.6639C21.6055 30.1406 29.8393 21.6099 39.9963 21.6099C50.1532 21.6099 58.3871 30.1406 58.3871 40.6639C58.3871 47.298 55.1147 53.1402 50.151 56.5524C49.7701 55.6065 49.3892 54.6606 49.0083 53.7145Z" fill="#EB3A2D"/>
<path fill-rule="evenodd" clip-rule="evenodd" d="M27.3539 62.2186C19.8152 57.7943 14.7537 49.6037 14.7537 40.2309C14.7537 26.1608 26.1598 14.7547 40.23 14.7547C54.3001 14.7547 65.7062 26.1608 65.7062 40.2309C65.7062 49.7161 60.5227 57.9905 52.8339 62.376C53.1958 63.2434 53.5576 64.1107 53.9195 64.978C62.6178 60.1559 68.5058 50.8811 68.5058 40.2309C68.5058 24.6146 55.8463 11.9551 40.23 11.9551C24.6136 11.9551 11.9541 24.6146 11.9541 40.2309C11.9541 50.7739 17.7242 59.9692 26.2788 64.8311C26.6371 63.9603 26.9955 63.0895 27.3539 62.2186Z" fill="#EB3A2D"/>
<path fill-rule="evenodd" clip-rule="evenodd" d="M57.9979 74.4013C71.0494 67.9301 80 54.6406 80 39.2972C80 17.594 62.0914 0 40 0C17.9086 0 0 17.594 0 39.2972C0 54.488 8.77348 67.6656 21.6139 74.2062C21.9814 73.3289 22.3489 72.4515 22.7165 71.574C10.9238 65.4666 2.88462 53.3043 2.88462 39.2972C2.88462 19.1591 19.5017 2.83393 40 2.83393C60.4983 2.83393 77.1154 19.1591 77.1154 39.2972C77.1154 53.4619 68.8942 65.7402 56.8838 71.778C57.2552 72.6525 57.6266 73.5269 57.9979 74.4013Z" fill="#EB3A2D"/>
</svg>
