<svg width="224" height="119" viewBox="0 0 224 119" fill="none" xmlns="http://www.w3.org/2000/svg">
<path d="M23.4 36.45C28.15 36.45 32.125 36.9 35.325 37.8C38.575 38.65 41 40.075 42.6 42.075C44.25 44.025 45.075 46.675 45.075 50.025C45.075 52.025 44.75 53.85 44.1 55.5C43.45 57.15 42.5 58.5 41.25 59.55C40.05 60.6 38.575 61.275 36.825 61.575V61.95C38.625 62.3 40.25 62.925 41.7 63.825C43.15 64.725 44.3 66.025 45.15 67.725C46 69.425 46.425 71.675 46.425 74.475C46.425 77.725 45.625 80.525 44.025 82.875C42.475 85.175 40.225 86.95 37.275 88.2C34.325 89.4 30.825 90 26.775 90H6.75V36.45H23.4ZM24.675 57.675C27.975 57.675 30.25 57.15 31.5 56.1C32.8 55.05 33.45 53.525 33.45 51.525C33.45 49.475 32.7 48 31.2 47.1C29.7 46.2 27.325 45.75 24.075 45.75H18.075V57.675H24.675ZM18.075 66.675V80.625H25.5C28.9 80.625 31.275 79.975 32.625 78.675C33.975 77.325 34.65 75.55 34.65 73.35C34.65 72 34.35 70.825 33.75 69.825C33.2 68.825 32.225 68.05 30.825 67.5C29.425 66.95 27.525 66.675 25.125 66.675H18.075ZM87.9656 90H57.1406V36.45H87.9656V45.75H68.4656V57.525H86.6156V66.825H68.4656V80.625H87.9656V90ZM111.408 62.175L93.4084 36.45H105.108L122.433 62.4V36.45H133.008V62.4L150.333 36.45H162.033L144.033 62.175L163.083 90H150.933L133.008 62.85V90H122.433V62.85L104.508 90H92.3584L111.408 62.175Z" fill="white"/>
<path d="M16.415 103.2V108.12H14.225V105H6.35V94.29H8.615V103.11H12.56V94.29H14.825V103.2H16.415ZM20.6637 96.66C21.4237 96.66 22.0737 96.805 22.6138 97.095C23.1638 97.385 23.5888 97.805 23.8887 98.355C24.1888 98.905 24.3388 99.58 24.3388 100.38V101.46H19.0587C19.0787 102.09 19.2637 102.585 19.6137 102.945C19.9737 103.305 20.4687 103.485 21.0987 103.485C21.6287 103.485 22.1087 103.435 22.5388 103.335C22.9687 103.225 23.4137 103.06 23.8737 102.84V104.565C23.4737 104.765 23.0487 104.91 22.5987 105C22.1587 105.1 21.6237 105.15 20.9937 105.15C20.1737 105.15 19.4487 105 18.8187 104.7C18.1887 104.39 17.6937 103.925 17.3337 103.305C16.9737 102.685 16.7937 101.905 16.7937 100.965C16.7937 100.005 16.9537 99.21 17.2737 98.58C17.6037 97.94 18.0587 97.46 18.6387 97.14C19.2187 96.82 19.8937 96.66 20.6637 96.66ZM20.6787 98.25C20.2487 98.25 19.8887 98.39 19.5987 98.67C19.3187 98.95 19.1537 99.385 19.1037 99.975H22.2387C22.2387 99.645 22.1787 99.35 22.0588 99.09C21.9487 98.83 21.7787 98.625 21.5487 98.475C21.3187 98.325 21.0287 98.25 20.6787 98.25ZM27.7861 96.81V99.96H30.9061V96.81H33.1411V105H30.9061V101.625H27.7861V105H25.5511V96.81H27.7861ZM41.6627 98.49H38.9777V105H36.7427V98.49H34.0577V96.81H41.6627V98.49ZM47.1337 96.66C48.0537 96.66 48.7987 97.02 49.3687 97.74C49.9387 98.45 50.2237 99.5 50.2237 100.89C50.2237 101.82 50.0887 102.605 49.8187 103.245C49.5487 103.875 49.1787 104.35 48.7087 104.67C48.2387 104.99 47.6937 105.15 47.0737 105.15C46.6837 105.15 46.3437 105.1 46.0537 105C45.7737 104.9 45.5337 104.77 45.3337 104.61C45.1337 104.45 44.9587 104.28 44.8087 104.1H44.6887C44.7287 104.29 44.7587 104.49 44.7787 104.7C44.7987 104.9 44.8087 105.1 44.8087 105.3V108.6H42.5737V96.81H44.3887L44.7037 97.875H44.8087C44.9587 97.655 45.1387 97.455 45.3487 97.275C45.5587 97.085 45.8087 96.935 46.0987 96.825C46.3987 96.715 46.7437 96.66 47.1337 96.66ZM46.4137 98.445C46.0237 98.445 45.7137 98.525 45.4837 98.685C45.2537 98.845 45.0837 99.09 44.9737 99.42C44.8737 99.74 44.8187 100.145 44.8087 100.635V100.875C44.8087 101.405 44.8587 101.855 44.9587 102.225C45.0587 102.585 45.2287 102.86 45.4687 103.05C45.7087 103.24 46.0337 103.335 46.4437 103.335C46.7837 103.335 47.0637 103.24 47.2837 103.05C47.5037 102.86 47.6687 102.58 47.7787 102.21C47.8887 101.84 47.9437 101.39 47.9437 100.86C47.9437 100.06 47.8187 99.46 47.5687 99.06C47.3287 98.65 46.9437 98.445 46.4137 98.445ZM59.3773 96.81V98.49H55.9573V105H53.7223V96.81H59.3773ZM64.8454 96.66C65.7654 96.66 66.5104 97.02 67.0804 97.74C67.6504 98.45 67.9354 99.5 67.9354 100.89C67.9354 101.82 67.8004 102.605 67.5304 103.245C67.2604 103.875 66.8904 104.35 66.4204 104.67C65.9504 104.99 65.4054 105.15 64.7854 105.15C64.3954 105.15 64.0554 105.1 63.7654 105C63.4854 104.9 63.2454 104.77 63.0454 104.61C62.8454 104.45 62.6704 104.28 62.5204 104.1H62.4004C62.4404 104.29 62.4704 104.49 62.4904 104.7C62.5104 104.9 62.5204 105.1 62.5204 105.3V108.6H60.2854V96.81H62.1004L62.4154 97.875H62.5204C62.6704 97.655 62.8504 97.455 63.0604 97.275C63.2704 97.085 63.5204 96.935 63.8104 96.825C64.1104 96.715 64.4554 96.66 64.8454 96.66ZM64.1254 98.445C63.7354 98.445 63.4254 98.525 63.1954 98.685C62.9654 98.845 62.7954 99.09 62.6854 99.42C62.5854 99.74 62.5304 100.145 62.5204 100.635V100.875C62.5204 101.405 62.5704 101.855 62.6704 102.225C62.7704 102.585 62.9404 102.86 63.1804 103.05C63.4204 103.24 63.7454 103.335 64.1554 103.335C64.4954 103.335 64.7754 103.24 64.9954 103.05C65.2154 102.86 65.3804 102.58 65.4904 102.21C65.6004 101.84 65.6554 101.39 65.6554 100.86C65.6554 100.06 65.5304 99.46 65.2804 99.06C65.0404 98.65 64.6554 98.445 64.1254 98.445ZM76.6176 100.89C76.6176 101.57 76.5226 102.175 76.3326 102.705C76.1526 103.235 75.8876 103.685 75.5376 104.055C75.1976 104.415 74.7826 104.69 74.2926 104.88C73.8026 105.06 73.2476 105.15 72.6276 105.15C72.0576 105.15 71.5276 105.06 71.0376 104.88C70.5576 104.69 70.1426 104.415 69.7926 104.055C69.4426 103.685 69.1676 103.235 68.9676 102.705C68.7776 102.175 68.6826 101.57 68.6826 100.89C68.6826 99.98 68.8426 99.215 69.1626 98.595C69.4826 97.965 69.9426 97.485 70.5426 97.155C71.1426 96.825 71.8526 96.66 72.6726 96.66C73.4426 96.66 74.1226 96.825 74.7126 97.155C75.3026 97.485 75.7676 97.965 76.1076 98.595C76.4476 99.215 76.6176 99.98 76.6176 100.89ZM70.9626 100.89C70.9626 101.43 71.0176 101.885 71.1276 102.255C71.2476 102.615 71.4326 102.89 71.6826 103.08C71.9326 103.26 72.2576 103.35 72.6576 103.35C73.0576 103.35 73.3776 103.26 73.6176 103.08C73.8676 102.89 74.0476 102.615 74.1576 102.255C74.2776 101.885 74.3376 101.43 74.3376 100.89C74.3376 100.35 74.2776 99.9 74.1576 99.54C74.0476 99.18 73.8676 98.91 73.6176 98.73C73.3676 98.55 73.0426 98.46 72.6426 98.46C72.0526 98.46 71.6226 98.665 71.3526 99.075C71.0926 99.475 70.9626 100.08 70.9626 100.89ZM88.1847 96.81V105H86.0997V100.98C86.0997 100.58 86.1047 100.19 86.1147 99.81C86.1347 99.43 86.1597 99.08 86.1897 98.76H86.1447L83.8797 105H82.1997L79.9047 98.745H79.8447C79.8847 99.075 79.9097 99.43 79.9197 99.81C79.9397 100.18 79.9497 100.59 79.9497 101.04V105H77.8647V96.81H81.0297L83.0697 102.36L85.1397 96.81H88.1847ZM93.281 96.645C94.381 96.645 95.221 96.885 95.801 97.365C96.391 97.835 96.686 98.56 96.686 99.54V105H95.126L94.691 103.89H94.631C94.401 104.18 94.161 104.42 93.911 104.61C93.671 104.8 93.391 104.935 93.071 105.015C92.761 105.105 92.376 105.15 91.916 105.15C91.436 105.15 91.001 105.06 90.611 104.88C90.231 104.69 89.931 104.405 89.711 104.025C89.491 103.635 89.381 103.145 89.381 102.555C89.381 101.685 89.686 101.045 90.296 100.635C90.906 100.215 91.821 99.985 93.041 99.945L94.466 99.9V99.54C94.466 99.11 94.351 98.795 94.121 98.595C93.901 98.395 93.591 98.295 93.191 98.295C92.791 98.295 92.401 98.355 92.021 98.475C91.641 98.585 91.261 98.725 90.881 98.895L90.146 97.38C90.586 97.15 91.071 96.97 91.601 96.84C92.141 96.71 92.701 96.645 93.281 96.645ZM93.596 101.235C92.876 101.255 92.376 101.385 92.096 101.625C91.816 101.865 91.676 102.18 91.676 102.57C91.676 102.91 91.776 103.155 91.976 103.305C92.176 103.445 92.436 103.515 92.756 103.515C93.236 103.515 93.641 103.375 93.971 103.095C94.301 102.805 94.466 102.4 94.466 101.88V101.205L93.596 101.235ZM105.739 96.81V103.365H106.939V107.94H104.929V105H99.4237V107.94H97.4137V103.365H98.1037C98.4637 102.815 98.7687 102.19 99.0187 101.49C99.2687 100.78 99.4687 100.025 99.6187 99.225C99.7687 98.425 99.8787 97.62 99.9487 96.81H105.739ZM101.824 98.49C101.744 99.09 101.644 99.675 101.524 100.245C101.404 100.805 101.254 101.345 101.074 101.865C100.904 102.385 100.694 102.885 100.444 103.365H103.504V98.49H101.824ZM111.065 105.15C110.255 105.15 109.565 105.005 108.995 104.715C108.425 104.415 107.99 103.955 107.69 103.335C107.39 102.715 107.24 101.92 107.24 100.95C107.24 99.95 107.41 99.135 107.75 98.505C108.09 97.875 108.56 97.41 109.16 97.11C109.77 96.81 110.47 96.66 111.26 96.66C111.82 96.66 112.305 96.715 112.715 96.825C113.135 96.935 113.5 97.065 113.81 97.215L113.15 98.94C112.8 98.8 112.47 98.685 112.16 98.595C111.86 98.505 111.56 98.46 111.26 98.46C110.87 98.46 110.545 98.555 110.285 98.745C110.025 98.925 109.83 99.2 109.7 99.57C109.58 99.93 109.52 100.385 109.52 100.935C109.52 101.475 109.585 101.925 109.715 102.285C109.855 102.635 110.055 102.9 110.315 103.08C110.575 103.25 110.89 103.335 111.26 103.335C111.73 103.335 112.145 103.275 112.505 103.155C112.865 103.025 113.215 102.85 113.555 102.63V104.535C113.215 104.755 112.855 104.91 112.475 105C112.105 105.1 111.635 105.15 111.065 105.15ZM118.65 99.975C119.49 99.975 120.185 100.065 120.735 100.245C121.285 100.415 121.69 100.68 121.95 101.04C122.22 101.4 122.355 101.85 122.355 102.39C122.355 102.92 122.23 103.38 121.98 103.77C121.74 104.16 121.355 104.465 120.825 104.685C120.295 104.895 119.6 105 118.74 105H114.84V96.81H117.075V99.975H118.65ZM120.12 102.42C120.12 102.1 119.99 101.87 119.73 101.73C119.48 101.59 119.105 101.52 118.605 101.52H117.075V103.455H118.635C119.075 103.455 119.43 103.375 119.7 103.215C119.98 103.055 120.12 102.79 120.12 102.42ZM128.824 96.81H131.284L128.044 100.74L131.569 105H129.034L125.689 100.845V105H123.454V96.81H125.689V100.785L128.824 96.81ZM139.288 100.89C139.288 101.57 139.193 102.175 139.003 102.705C138.823 103.235 138.558 103.685 138.208 104.055C137.868 104.415 137.453 104.69 136.963 104.88C136.473 105.06 135.918 105.15 135.298 105.15C134.728 105.15 134.198 105.06 133.708 104.88C133.228 104.69 132.813 104.415 132.463 104.055C132.113 103.685 131.838 103.235 131.638 102.705C131.448 102.175 131.353 101.57 131.353 100.89C131.353 99.98 131.513 99.215 131.833 98.595C132.153 97.965 132.613 97.485 133.213 97.155C133.813 96.825 134.523 96.66 135.343 96.66C136.113 96.66 136.793 96.825 137.383 97.155C137.973 97.485 138.438 97.965 138.778 98.595C139.118 99.215 139.288 99.98 139.288 100.89ZM133.633 100.89C133.633 101.43 133.688 101.885 133.798 102.255C133.918 102.615 134.103 102.89 134.353 103.08C134.603 103.26 134.928 103.35 135.328 103.35C135.728 103.35 136.048 103.26 136.288 103.08C136.538 102.89 136.718 102.615 136.828 102.255C136.948 101.885 137.008 101.43 137.008 100.89C137.008 100.35 136.948 99.9 136.828 99.54C136.718 99.18 136.538 98.91 136.288 98.73C136.038 98.55 135.713 98.46 135.313 98.46C134.723 98.46 134.293 98.665 134.023 99.075C133.763 99.475 133.633 100.08 133.633 100.89ZM142.77 105H140.535V96.81H142.77V105ZM139.14 94.71C139.14 94.36 139.24 94.11 139.44 93.96C139.64 93.8 139.88 93.72 140.16 93.72C140.44 93.72 140.68 93.8 140.88 93.96C141.09 94.11 141.195 94.36 141.195 94.71C141.195 95.04 141.09 95.285 140.88 95.445C140.68 95.605 140.44 95.685 140.16 95.685C139.88 95.685 139.64 95.605 139.44 95.445C139.24 95.285 139.14 95.04 139.14 94.71ZM142.095 94.71C142.095 94.36 142.195 94.11 142.395 93.96C142.595 93.8 142.84 93.72 143.13 93.72C143.41 93.72 143.65 93.8 143.85 93.96C144.06 94.11 144.165 94.36 144.165 94.71C144.165 95.04 144.06 95.285 143.85 95.445C143.65 95.605 143.41 95.685 143.13 95.685C142.85 95.685 142.605 95.605 142.395 95.445C142.195 95.285 142.095 95.04 142.095 94.71ZM150.122 96.645C151.222 96.645 152.062 96.885 152.642 97.365C153.232 97.835 153.527 98.56 153.527 99.54V105H151.967L151.532 103.89H151.472C151.242 104.18 151.002 104.42 150.752 104.61C150.512 104.8 150.232 104.935 149.912 105.015C149.602 105.105 149.217 105.15 148.757 105.15C148.277 105.15 147.842 105.06 147.452 104.88C147.072 104.69 146.772 104.405 146.552 104.025C146.332 103.635 146.222 103.145 146.222 102.555C146.222 101.685 146.527 101.045 147.137 100.635C147.747 100.215 148.662 99.985 149.882 99.945L151.307 99.9V99.54C151.307 99.11 151.192 98.795 150.962 98.595C150.742 98.395 150.432 98.295 150.032 98.295C149.632 98.295 149.242 98.355 148.862 98.475C148.482 98.585 148.102 98.725 147.722 98.895L146.987 97.38C147.427 97.15 147.912 96.97 148.442 96.84C148.982 96.71 149.542 96.645 150.122 96.645ZM150.437 101.235C149.717 101.255 149.217 101.385 148.937 101.625C148.657 101.865 148.517 102.18 148.517 102.57C148.517 102.91 148.617 103.155 148.817 103.305C149.017 103.445 149.277 103.515 149.597 103.515C150.077 103.515 150.482 103.375 150.812 103.095C151.142 102.805 151.307 102.4 151.307 101.88V101.205L150.437 101.235ZM157.449 96.81V99.96H160.569V96.81H162.804V105H160.569V101.625H157.449V105H155.214V96.81H157.449ZM167.906 96.645C169.006 96.645 169.846 96.885 170.426 97.365C171.016 97.835 171.311 98.56 171.311 99.54V105H169.751L169.316 103.89H169.256C169.026 104.18 168.786 104.42 168.536 104.61C168.296 104.8 168.016 104.935 167.696 105.015C167.386 105.105 167.001 105.15 166.541 105.15C166.061 105.15 165.626 105.06 165.236 104.88C164.856 104.69 164.556 104.405 164.336 104.025C164.116 103.635 164.006 103.145 164.006 102.555C164.006 101.685 164.311 101.045 164.921 100.635C165.531 100.215 166.446 99.985 167.666 99.945L169.091 99.9V99.54C169.091 99.11 168.976 98.795 168.746 98.595C168.526 98.395 168.216 98.295 167.816 98.295C167.416 98.295 167.026 98.355 166.646 98.475C166.266 98.585 165.886 98.725 165.506 98.895L164.771 97.38C165.211 97.15 165.696 96.97 166.226 96.84C166.766 96.71 167.326 96.645 167.906 96.645ZM168.221 101.235C167.501 101.255 167.001 101.385 166.721 101.625C166.441 101.865 166.301 102.18 166.301 102.57C166.301 102.91 166.401 103.155 166.601 103.305C166.801 103.445 167.061 103.515 167.381 103.515C167.861 103.515 168.266 103.375 168.596 103.095C168.926 102.805 169.091 102.4 169.091 101.88V101.205L168.221 101.235ZM180.334 105H178.099V98.49H176.044C175.944 99.69 175.819 100.715 175.669 101.565C175.529 102.405 175.349 103.09 175.129 103.62C174.919 104.15 174.649 104.54 174.319 104.79C173.989 105.03 173.584 105.15 173.104 105.15C172.844 105.15 172.609 105.13 172.399 105.09C172.189 105.05 171.999 104.99 171.829 104.91V103.125C171.939 103.165 172.054 103.2 172.174 103.23C172.294 103.26 172.419 103.275 172.549 103.275C172.689 103.275 172.819 103.22 172.939 103.11C173.069 103 173.189 102.805 173.299 102.525C173.419 102.245 173.529 101.86 173.629 101.37C173.729 100.88 173.819 100.265 173.899 99.525C173.989 98.775 174.069 97.87 174.139 96.81H180.334V105ZM184.302 96.81V105H182.067V96.81H184.302ZM183.192 93.6C183.522 93.6 183.807 93.68 184.047 93.84C184.287 93.99 184.407 94.275 184.407 94.695C184.407 95.105 184.287 95.39 184.047 95.55C183.807 95.71 183.522 95.79 183.192 95.79C182.852 95.79 182.562 95.71 182.322 95.55C182.092 95.39 181.977 95.105 181.977 94.695C181.977 94.275 182.092 93.99 182.322 93.84C182.562 93.68 182.852 93.6 183.192 93.6ZM192.817 98.49H190.132V105H187.897V98.49H185.212V96.81H192.817V98.49ZM195.888 100.05C195.888 100.22 195.878 100.43 195.858 100.68C195.848 100.93 195.833 101.185 195.813 101.445C195.803 101.705 195.788 101.935 195.768 102.135C195.748 102.335 195.733 102.475 195.723 102.555L199.503 96.81H202.188V105H200.028V101.73C200.028 101.46 200.038 101.165 200.058 100.845C200.078 100.515 200.098 100.21 200.118 99.93C200.148 99.64 200.168 99.42 200.178 99.27L196.413 105H193.728V96.81H195.888V100.05ZM209.294 96.81H211.754L208.514 100.74L212.039 105H209.504L206.159 100.845V105H203.924V96.81H206.159V100.785L209.294 96.81ZM214.771 100.05C214.771 100.22 214.761 100.43 214.741 100.68C214.731 100.93 214.716 101.185 214.696 101.445C214.686 101.705 214.671 101.935 214.651 102.135C214.631 102.335 214.616 102.475 214.606 102.555L218.386 96.81H221.071V105H218.911V101.73C218.911 101.46 218.921 101.165 218.941 100.845C218.961 100.515 218.981 100.21 219.001 99.93C219.031 99.64 219.051 99.42 219.061 99.27L215.296 105H212.611V96.81H214.771V100.05Z" fill="white"/>
<path fill-rule="evenodd" clip-rule="evenodd" d="M200.88 32.2945C203.438 30.5448 205.105 27.6838 205.105 24.4512C205.105 19.1255 200.581 14.8081 195 14.8081C189.419 14.8081 184.895 19.1255 184.895 24.4512C184.895 27.5565 186.433 30.3189 188.822 32.0826C188.62 32.5512 188.418 33.0196 188.216 33.488C188.17 33.5942 188.124 33.7004 188.078 33.8065C185.006 31.7328 183 28.3155 183 24.4512C183 18.1269 188.373 13 195 13C201.627 13 207 18.1269 207 24.4512C207 28.4382 204.865 31.9493 201.626 34C201.377 33.4315 201.129 32.863 200.88 32.2945Z" fill="#EB3A2D"/>
<path fill-rule="evenodd" clip-rule="evenodd" d="M196.211 39.2748C195.811 39.3027 195.407 39.3168 195 39.3168C194.496 39.3168 193.997 39.2951 193.505 39.2526C193.281 39.7945 193.058 40.3364 192.834 40.8782C193.544 40.9586 194.267 41 195 41C195.643 41 196.278 40.9682 196.904 40.9061C196.764 40.5777 196.625 40.2494 196.485 39.9211C196.394 39.7057 196.302 39.4902 196.211 39.2748ZM186.803 37.2194C182.004 34.5595 178.782 29.6351 178.782 24C178.782 15.5407 186.043 8.68317 195 8.68317C203.957 8.68317 211.218 15.5407 211.218 24C211.218 29.7026 207.918 34.6774 203.023 37.3141C203.254 37.8355 203.484 38.357 203.715 38.8784C209.252 35.9793 213 30.4031 213 24C213 14.6112 204.941 7 195 7C185.059 7 177 14.6112 177 24C177 30.3386 180.673 35.867 186.119 38.7901C186.347 38.2666 186.575 37.743 186.803 37.2194Z" fill="#EB3A2D"/>
<path fill-rule="evenodd" clip-rule="evenodd" d="M205.524 44.7392C213.518 40.848 219 32.8567 219 23.6303C219 10.5797 208.031 0 194.5 0C180.969 0 170 10.5797 170 23.6303C170 32.7649 175.374 40.6889 183.238 44.6219C183.464 44.0944 183.689 43.5668 183.914 43.0391C176.691 39.3666 171.767 32.0531 171.767 23.6303C171.767 11.5208 181.945 1.70411 194.5 1.70411C207.055 1.70411 217.233 11.5208 217.233 23.6303C217.233 32.1479 212.198 39.5311 204.841 43.1618C205.069 43.6876 205.296 44.2134 205.524 44.7392ZM190.629 45.24C190.412 45.7795 190.194 46.3191 189.976 46.8586C190.265 46.9107 190.556 46.9578 190.849 47V45.2752C190.775 45.2638 190.702 45.2521 190.629 45.24Z" fill="#EB3A2D"/>
<path d="M223 89.7329C220.761 89.7329 215.71 89.7361 213.662 89.6889C213.44 89.6826 213.127 89.3302 213.024 89.0722C211.539 85.394 210.082 81.7 208.619 78.0124C207.627 75.5172 206.633 73.0252 205.639 70.5301C205.567 70.3476 205.476 70.1714 205.326 69.841C204.779 71.2129 204.288 72.4368 203.803 73.6608C201.214 80.2023 198.613 86.7406 196.058 93.2979C195.802 93.9555 195.411 93.9649 194.876 93.9964C194.357 94.0278 194.123 93.8579 193.92 93.3576C190.931 86.0201 187.916 78.692 184.905 71.3639C184.78 71.0587 184.643 70.7566 184.433 70.2752C183.78 71.946 183.186 73.4563 182.598 74.9697C180.781 79.6611 178.961 84.3493 177.163 89.047C176.979 89.5253 176.773 89.7424 176.225 89.7329C174.205 89.6983 169.182 89.7172 167 89.7172C168 87 190 35.5 194.82 24C199.5 35 214.5 69.841 223 89.7329ZM194.936 91.2558C195.033 91.0859 195.095 91.001 195.133 90.9034C198.163 83.2449 201.193 75.5896 204.2 67.9217C204.316 67.6259 204.301 67.2011 204.182 66.8991C201.161 59.2689 198.119 51.6451 195.08 44.0212C195.014 43.8544 194.92 43.694 194.82 43.4957C194.742 43.6373 194.698 43.7002 194.67 43.7726C191.622 51.6482 188.573 59.5206 185.549 67.4025C185.431 67.7172 185.487 68.1734 185.618 68.4975C187.863 74.0258 190.13 79.5447 192.397 85.0667C193.235 87.1088 194.076 89.1508 194.939 91.2495L194.936 91.2558Z" fill="white"/>
<path d="M195 23.5L167 89.5H177L195 43.5L213.5 89.5H223L195 23.5Z" stroke="white"/>
</svg>
